<svg data-v-423bf9ae="" xmlns="http://www.w3.org/2000/svg" viewBox="208.31 0 178.55 122.25" class="iconAbove"><!----><!----><!----><defs data-v-423bf9ae=""><linearGradient data-v-423bf9ae="" gradientTransform="rotate(25)" id="0557db5e-e306-4e8a-946f-13d37bdce59b" x1="0%" y1="0%" x2="100%" y2="0%"><stop data-v-423bf9ae="" offset="0%" style="stop-color: rgb(13, 124, 233); stop-opacity: 1;"></stop><stop data-v-423bf9ae="" offset="100%" style="stop-color: rgb(21, 207, 241); stop-opacity: 1;"></stop></linearGradient></defs><g data-v-423bf9ae="" id="ff908492-33b9-4ad3-86e8-aef1032ad68a" transform="matrix(2.310791334493318,0,0,2.310791334493318,228.679034361417,-0.0030222183049630758)" stroke="none" fill="url(#0557db5e-e306-4e8a-946f-13d37bdce59b)"><g><path d="M58.999 34.375c-.15 0-.303-.034-.446-.105l-2.204-1.103a3.476 3.476 0 00-2.841-.118l-1.273.509a5.464 5.464 0 01-4.478-.186l-.206-.103a1.001 1.001 0 01.898-1.788l.204.103a3.476 3.476 0 002.839.117l1.273-.51a5.483 5.483 0 014.478.187l2.204 1.102a1.001 1.001 0 01-.448 1.895M34 34.316a5.47 5.47 0 01-2.447-.574 3.484 3.484 0 00-3.106 0 1 1 0 01-.894-1.789 5.5 5.5 0 014.893 0 3.487 3.487 0 003.106 0l.029-.014a5.497 5.497 0 014.866.013 1 1 0 01-.894 1.79 3.488 3.488 0 00-3.105 0c-.01.004-.019.01-.029.013a5.475 5.475 0 01-2.419.561M1 34.375a1 1 0 01-.371-1.929l3.136-1.254a5.479 5.479 0 014.478.186l.204.102a3.485 3.485 0 003.105 0l.029-.013a5.5 5.5 0 014.866.013 3.485 3.485 0 003.105 0 1 1 0 11.862 1.806 5.5 5.5 0 01-4.861-.016 3.485 3.485 0 00-3.105 0l-.029.013a5.497 5.497 0 01-4.866-.013l-.204-.103a3.473 3.473 0 00-2.841-.118l-3.137 1.254a.987.987 0 01-.371.072M58.999 38.949c-.15 0-.303-.034-.446-.105l-2.204-1.103a3.473 3.473 0 00-2.841-.118l-1.273.509a5.478 5.478 0 01-4.478-.186 1 1 0 11.894-1.79 3.479 3.479 0 002.842.119l1.272-.51a5.474 5.474 0 014.478.187l2.204 1.102a1.001 1.001 0 01-.448 1.895M34 38.418a5.47 5.47 0 01-2.447-.574 1 1 0 01.893-1.79 3.487 3.487 0 003.106.001l.029-.014a5.497 5.497 0 014.866.013 1 1 0 01-.894 1.79 3.488 3.488 0 00-3.105 0c-.01.004-.019.01-.029.013a5.475 5.475 0 01-2.419.561M18 38.418a5.473 5.473 0 01-2.447-.575 1 1 0 11.927-1.77c.991.538 2.213.371 3.239-.098a5.509 5.509 0 013.626-.329c.6.151.88.853.603 1.407-.213.428-.692.624-1.157.516a3.484 3.484 0 00-2.343.274 5.48 5.48 0 01-2.448.575M1 38.95a1 1 0 01-.371-1.929l3.136-1.255a5.471 5.471 0 014.478.186l.206.103a1.001 1.001 0 01-.898 1.788l-.204-.103a3.47 3.47 0 00-2.84-.117l-3.136 1.254A.987.987 0 011 38.95M27.31 22.296a1 1 0 01-.81-1.586L41.19.415a1 1 0 011.621 1.173L28.12 21.882c-.196.27-.501.414-.811.414"></path><path d="M25.44 21.176l-1.976.316-3.275 4.525a1.002 1.002 0 00.225 1.397l3.24 2.345a1 1 0 001.395-.224l3.276-4.524v-.004l-.316-1.972-2.569-1.859zm-1.204 10.771a2.989 2.989 0 01-1.755-.567l-3.24-2.346a3.004 3.004 0 01-.672-4.189l3.276-4.525a1.978 1.978 0 011.303-.802l1.976-.317a1.999 1.999 0 011.49.355l2.567 1.859c.434.314.72.777.803 1.304l.316 1.975a1.998 1.998 0 01-.354 1.489l-3.277 4.525a2.993 2.993 0 01-2.433 1.239z"></path><path d="M2.999 29.375a1 1 0 01-.371-1.929l3.136-1.254a5.467 5.467 0 014.478.187l.203.1a3.486 3.486 0 003.107.001 5.499 5.499 0 014.894 0c.338.17.707.282 1.098.333a1 1 0 01-.264 1.983 5.47 5.47 0 01-1.728-.526 3.485 3.485 0 00-3.105 0 5.492 5.492 0 01-4.894 0l-.203-.102a3.469 3.469 0 00-2.844-.119L3.37 29.303a.987.987 0 01-.371.072M56.999 29.375c-.15 0-.303-.034-.446-.105l-2.204-1.103a3.477 3.477 0 00-2.841-.118l-1.273.509a5.475 5.475 0 01-4.478-.186l-.204-.102a3.485 3.485 0 00-3.105 0l-.029.014a5.5 5.5 0 01-4.866-.014 3.487 3.487 0 00-3.106 0c-.281.14-.613.14-.894 0a3.485 3.485 0 00-3.105 0l-.029.013a5.483 5.483 0 01-2.998.532 1 1 0 01-.889-1.101 1.01 1.01 0 011.1-.888 3.443 3.443 0 001.92-.345l.029-.014A5.509 5.509 0 0134 26.282a5.504 5.504 0 014.446.198 3.487 3.487 0 003.106 0l.029-.013a5.503 5.503 0 014.866.013l.204.103a3.48 3.48 0 002.841.118l1.273-.51a5.483 5.483 0 014.478.187l2.204 1.102a1.001 1.001 0 01-.448 1.895"></path><path d="M47.212 28.826a1 1 0 01-.2-1.98A4.995 4.995 0 0051 21.974C51 19.232 48.757 17 46 17H14c-2.757 0-5 2.232-5 4.974a4.95 4.95 0 003.879 4.843 1 1 0 01-.445 1.95A6.94 6.94 0 017 21.974C7 18.13 10.14 15 14 15h32c3.859 0 7 3.13 7 6.974 0 3.297-2.35 6.17-5.587 6.831a.922.922 0 01-.201.021"></path><path d="M44 27.902a1 1 0 01-1-1V16a1 1 0 112 0v10.902a1 1 0 01-1 1M16 27.903a1 1 0 01-1-1V16.001a1 1 0 112 0v10.902a1 1 0 01-1 1"></path></g></g><!----></svg>