<svg data-v-423bf9ae="" xmlns="http://www.w3.org/2000/svg" viewBox="0 0 595.1680924588665 60" class="font"><!----><!----><!----><g data-v-423bf9ae="" id="7be7c998-ad05-4f53-abfc-f50e6ac9ae81" fill="black" transform="matrix(4.201681031442939,0,0,4.201681031442939,-0.8823605764640661,-25.294120205982942)"><path d="M2.32 7.11L4.18 15.35L6.29 7.11L8.07 7.11L10.23 15.36L12.10 7.11L14.22 7.11Q14.14 7.32 14.06 7.55Q13.98 7.78 13.89 8.07Q13.79 8.36 13.69 8.73Q13.58 9.11 13.43 9.60L13.43 9.60L11.31 17.09L9.16 17.09L7.18 9.60L5.23 17.09L3.08 17.09L0.99 9.60Q0.85 9.11 0.75 8.74Q0.64 8.37 0.54 8.07Q0.45 7.77 0.37 7.54Q0.29 7.31 0.21 7.11L0.21 7.11L2.32 7.11ZM17.43 13.13L17.43 17.09L15.52 17.09L15.52 9.37Q15.52 8.26 15.50 7.43Q15.49 6.60 15.42 6.15L15.42 6.15L17.43 6.15L17.43 11.28Q17.68 10.96 18.00 10.72Q18.31 10.47 18.65 10.31Q19.00 10.14 19.36 10.06Q19.73 9.98 20.10 9.98L20.10 9.98Q22.18 9.98 22.18 12.82L22.18 12.82L22.18 17.09L20.27 17.09L20.27 13.33Q20.27 12.83 20.21 12.51Q20.15 12.19 20.02 12.00Q19.89 11.81 19.68 11.73Q19.48 11.66 19.21 11.66L19.21 11.66Q18.92 11.66 18.63 11.79Q18.35 11.92 18.12 12.13Q17.88 12.34 17.70 12.60Q17.52 12.86 17.43 13.13L17.43 13.13ZM24.03 7.62L24.03 7.62Q24.03 7.36 24.12 7.14Q24.21 6.92 24.37 6.76Q24.53 6.60 24.75 6.51Q24.96 6.43 25.22 6.43L25.22 6.43Q25.48 6.43 25.70 6.51Q25.92 6.60 26.08 6.76Q26.24 6.92 26.33 7.14Q26.42 7.36 26.42 7.62L26.42 7.62Q26.42 7.89 26.33 8.11Q26.24 8.33 26.08 8.49Q25.92 8.65 25.70 8.73Q25.48 8.82 25.22 8.82L25.22 8.82Q24.96 8.82 24.75 8.73Q24.53 8.65 24.37 8.49Q24.21 8.33 24.12 8.11Q24.03 7.89 24.03 7.62ZM24.17 10.12L26.18 10.12L26.18 13.84Q26.18 14.17 26.19 14.62Q26.20 15.07 26.22 15.52Q26.24 15.98 26.26 16.40Q26.28 16.82 26.32 17.09L26.32 17.09L24.27 17.09L24.27 13.47Q24.27 12.97 24.26 12.48Q24.26 12.00 24.25 11.56Q24.24 11.13 24.22 10.76Q24.20 10.38 24.17 10.12L24.17 10.12ZM32.92 11.59L30.83 11.59L30.83 13.93Q30.83 14.51 30.88 14.86Q30.93 15.20 31.03 15.39Q31.14 15.57 31.30 15.63Q31.47 15.68 31.70 15.68L31.70 15.68Q31.96 15.68 32.28 15.55Q32.61 15.42 33.02 15.17L33.02 15.17L33.02 16.70Q32.53 17.01 32.08 17.13Q31.63 17.26 31.26 17.26L31.26 17.26Q30.78 17.26 30.35 17.17Q29.92 17.08 29.60 16.84Q29.29 16.61 29.10 16.23Q28.92 15.84 28.92 15.24L28.92 15.24L28.92 11.59L27.62 11.59L27.62 10.22L28.92 10.22L28.92 8.07L30.83 8.07L30.83 10.22L32.92 10.22L32.92 11.59ZM40.37 14.01L35.95 14.01Q36.02 14.90 36.45 15.30Q36.89 15.69 37.66 15.69L37.66 15.69Q38.34 15.69 38.98 15.53Q39.61 15.38 40.26 15.00L40.26 15.00L40.40 16.58Q40.03 16.76 39.68 16.89Q39.33 17.02 38.98 17.10Q38.62 17.19 38.25 17.22Q37.88 17.26 37.49 17.26L37.49 17.26Q36.81 17.26 36.19 17.03Q35.57 16.80 35.10 16.35Q34.63 15.91 34.35 15.24Q34.08 14.58 34.08 13.71L34.08 13.71Q34.08 12.86 34.31 12.17Q34.55 11.48 34.99 11.00Q35.44 10.51 36.07 10.24Q36.70 9.98 37.49 9.98L37.49 9.98Q38.06 9.98 38.50 10.12Q38.93 10.26 39.25 10.50Q39.57 10.75 39.78 11.08Q40.00 11.41 40.12 11.80Q40.25 12.18 40.30 12.61Q40.36 13.03 40.36 13.45L40.36 13.45L40.36 13.58Q40.36 13.65 40.36 13.73Q40.37 13.82 40.37 13.89L40.37 13.89L40.37 14.01ZM37.39 11.42L37.39 11.42Q36.80 11.42 36.45 11.73Q36.11 12.05 35.99 12.78L35.99 12.78L38.62 12.78Q38.62 12.06 38.31 11.74Q38.00 11.42 37.39 11.42ZM47.13 7.11L48.99 15.35L51.10 7.11L52.88 7.11L55.04 15.36L56.91 7.11L59.03 7.11Q58.95 7.32 58.87 7.55Q58.79 7.78 58.70 8.07Q58.60 8.36 58.50 8.73Q58.39 9.11 58.24 9.60L58.24 9.60L56.12 17.09L53.97 17.09L51.99 9.60L50.04 17.09L47.89 17.09L45.80 9.60Q45.66 9.11 45.55 8.74Q45.45 8.37 45.35 8.07Q45.26 7.77 45.18 7.54Q45.10 7.31 45.01 7.11L45.01 7.11L47.13 7.11ZM65.01 12.10L65.01 11.65Q64.87 11.61 64.59 11.56Q64.32 11.51 63.88 11.51L63.88 11.51Q63.34 11.51 62.98 11.74Q62.62 11.98 62.40 12.37Q62.19 12.76 62.09 13.25Q62.00 13.75 62.00 14.29L62.00 14.29Q62.00 14.59 62.06 14.83Q62.12 15.08 62.22 15.26Q62.32 15.44 62.46 15.53Q62.60 15.63 62.75 15.63L62.75 15.63Q63.01 15.63 63.27 15.43Q63.54 15.22 63.79 14.89Q64.04 14.56 64.26 14.16Q64.48 13.75 64.65 13.36Q64.82 12.97 64.91 12.63Q65.01 12.30 65.01 12.10L65.01 12.10ZM67.41 17.09L65.59 17.09Q65.52 16.97 65.45 16.71Q65.38 16.45 65.33 16.16Q65.28 15.86 65.25 15.57Q65.21 15.28 65.21 15.09L65.21 15.09L65.21 14.70Q65.00 15.14 64.69 15.60Q64.39 16.05 64.00 16.42Q63.61 16.79 63.14 17.02Q62.67 17.26 62.14 17.26L62.14 17.26Q61.71 17.26 61.33 17.07Q60.96 16.88 60.68 16.50Q60.40 16.13 60.25 15.57Q60.09 15.01 60.09 14.29L60.09 14.29Q60.09 13.47 60.33 12.70Q60.57 11.92 61.07 11.32Q61.56 10.71 62.34 10.35Q63.11 9.98 64.17 9.98L64.17 9.98Q64.91 9.98 65.65 10.07Q66.38 10.15 66.96 10.29L66.96 10.29L66.96 13.47Q66.96 14.76 67.09 15.64Q67.21 16.52 67.41 17.09L67.41 17.09ZM73.49 11.59L71.41 11.59L71.41 13.93Q71.41 14.51 71.46 14.86Q71.50 15.20 71.61 15.39Q71.72 15.57 71.88 15.63Q72.04 15.68 72.28 15.68L72.28 15.68Q72.54 15.68 72.86 15.55Q73.19 15.42 73.60 15.17L73.60 15.17L73.60 16.70Q73.10 17.01 72.66 17.13Q72.21 17.26 71.84 17.26L71.84 17.26Q71.35 17.26 70.93 17.17Q70.50 17.08 70.18 16.84Q69.86 16.61 69.68 16.23Q69.49 15.84 69.49 15.24L69.49 15.24L69.49 11.59L68.20 11.59L68.20 10.22L69.49 10.22L69.49 8.07L71.41 8.07L71.41 10.22L73.49 10.22L73.49 11.59ZM80.94 14.01L76.53 14.01Q76.60 14.90 77.03 15.30Q77.46 15.69 78.24 15.69L78.24 15.69Q78.91 15.69 79.55 15.53Q80.19 15.38 80.83 15.00L80.83 15.00L80.98 16.58Q80.61 16.76 80.26 16.89Q79.91 17.02 79.55 17.10Q79.20 17.19 78.83 17.22Q78.46 17.26 78.07 17.26L78.07 17.26Q77.39 17.26 76.77 17.03Q76.15 16.80 75.68 16.35Q75.21 15.91 74.93 15.24Q74.66 14.58 74.66 13.71L74.66 13.71Q74.66 12.86 74.89 12.17Q75.13 11.48 75.57 11.00Q76.02 10.51 76.64 10.24Q77.27 9.98 78.07 9.98L78.07 9.98Q78.64 9.98 79.07 10.12Q79.51 10.26 79.83 10.50Q80.14 10.75 80.36 11.08Q80.58 11.41 80.70 11.80Q80.83 12.18 80.88 12.61Q80.94 13.03 80.94 13.45L80.94 13.45L80.94 13.58Q80.94 13.65 80.94 13.73Q80.94 13.82 80.94 13.89L80.94 13.89L80.94 14.01ZM77.97 11.42L77.97 11.42Q77.38 11.42 77.03 11.73Q76.69 12.05 76.57 12.78L76.57 12.78L79.20 12.78Q79.20 12.06 78.89 11.74Q78.58 11.42 77.97 11.42ZM84.53 17.09L82.62 17.09L82.62 12.89Q82.62 11.87 82.51 11.17Q82.39 10.47 82.28 10.12L82.28 10.12L84.16 10.12Q84.20 10.23 84.24 10.40Q84.28 10.58 84.31 10.77Q84.35 10.96 84.38 11.14L84.38 11.14L84.43 11.45Q84.68 11.09 84.96 10.82Q85.24 10.55 85.52 10.36Q85.80 10.17 86.08 10.08Q86.35 9.98 86.58 9.98L86.58 9.98Q87.06 9.98 87.40 10.19Q87.74 10.39 87.95 10.74Q88.17 11.09 88.27 11.56Q88.36 12.02 88.36 12.54L88.36 12.54L86.84 12.78Q86.80 12.32 86.61 12.03Q86.42 11.75 85.98 11.75L85.98 11.75Q85.81 11.75 85.60 11.90Q85.38 12.05 85.18 12.29Q84.97 12.53 84.80 12.84Q84.62 13.15 84.53 13.47L84.53 13.47L84.53 17.09ZM95.27 13.09L95.27 14.12Q95.27 14.62 95.27 15.07Q95.27 15.52 95.28 15.91Q95.29 16.29 95.31 16.59Q95.33 16.89 95.37 17.09L95.37 17.09L93.21 17.09Q93.29 16.68 93.30 15.90Q93.32 15.13 93.32 14.12L93.32 14.12L93.32 9.28Q93.32 8.80 93.31 8.38Q93.30 7.97 93.28 7.64Q93.26 7.31 93.21 7.11L93.21 7.11Q93.75 7.10 94.32 7.08L94.32 7.08Q94.81 7.06 95.42 7.05Q96.03 7.04 96.63 7.04L96.63 7.04Q97.43 7.04 98.09 7.22Q98.75 7.40 99.22 7.77Q99.70 8.13 99.96 8.69Q100.22 9.24 100.22 9.98L100.22 9.98Q100.22 10.55 100.06 11.00Q99.91 11.46 99.63 11.81Q99.35 12.17 98.97 12.42Q98.59 12.67 98.14 12.82L98.14 12.82Q98.33 13.09 98.62 13.48Q98.90 13.88 99.21 14.31Q99.53 14.75 99.86 15.20Q100.19 15.65 100.47 16.04Q100.75 16.43 100.97 16.71Q101.19 16.99 101.28 17.09L101.28 17.09L98.85 17.09L96.22 13.09L95.27 13.09ZM95.27 8.61L95.27 11.62L96.33 11.62Q96.78 11.62 97.14 11.54Q97.49 11.46 97.75 11.27Q98 11.08 98.14 10.77Q98.27 10.47 98.27 10.01L98.27 10.01Q98.27 9.24 97.79 8.91Q97.30 8.58 96.39 8.58L96.39 8.58Q96.20 8.58 96.04 8.58Q95.89 8.59 95.76 8.59Q95.63 8.59 95.52 8.60Q95.40 8.61 95.27 8.61L95.27 8.61ZM107.23 12.10L107.23 11.65Q107.08 11.61 106.81 11.56Q106.54 11.51 106.10 11.51L106.10 11.51Q105.56 11.51 105.20 11.74Q104.84 11.98 104.62 12.37Q104.41 12.76 104.31 13.25Q104.22 13.75 104.22 14.29L104.22 14.29Q104.22 14.59 104.28 14.83Q104.34 15.08 104.44 15.26Q104.54 15.44 104.68 15.53Q104.82 15.63 104.97 15.63L104.97 15.63Q105.23 15.63 105.49 15.43Q105.76 15.22 106.01 14.89Q106.26 14.56 106.48 14.16Q106.70 13.75 106.87 13.36Q107.04 12.97 107.13 12.63Q107.23 12.30 107.23 12.10L107.23 12.10ZM109.63 17.09L107.81 17.09Q107.73 16.97 107.67 16.71Q107.60 16.45 107.55 16.16Q107.50 15.86 107.46 15.57Q107.43 15.28 107.43 15.09L107.43 15.09L107.43 14.70Q107.21 15.14 106.91 15.60Q106.61 16.05 106.22 16.42Q105.83 16.79 105.36 17.02Q104.89 17.26 104.36 17.26L104.36 17.26Q103.93 17.26 103.55 17.07Q103.17 16.88 102.90 16.50Q102.62 16.13 102.46 15.57Q102.31 15.01 102.31 14.29L102.31 14.29Q102.31 13.47 102.55 12.70Q102.79 11.92 103.28 11.32Q103.78 10.71 104.56 10.35Q105.33 9.98 106.39 9.98L106.39 9.98Q107.13 9.98 107.86 10.07Q108.60 10.15 109.18 10.29L109.18 10.29L109.18 13.47Q109.18 14.76 109.31 15.64Q109.43 16.52 109.63 17.09L109.63 17.09ZM110.41 11.59L110.41 10.22L111.78 10.22L111.78 9.09Q111.78 8.33 111.97 7.75Q112.15 7.17 112.50 6.78Q112.85 6.40 113.35 6.21Q113.85 6.02 114.48 6.02L114.48 6.02Q114.67 6.02 114.90 6.05Q115.12 6.09 115.34 6.16Q115.56 6.22 115.77 6.31Q115.97 6.40 116.12 6.49L116.12 6.49L115.73 8.05Q115.62 7.95 115.49 7.87Q115.35 7.79 115.20 7.73Q115.06 7.67 114.91 7.64Q114.76 7.61 114.64 7.61L114.64 7.61Q114.15 7.61 113.92 7.97Q113.70 8.33 113.70 9.17L113.70 9.17L113.70 10.22L115.44 10.22L115.44 11.59L113.70 11.59L113.70 13.71Q113.70 14.21 113.71 14.70Q113.72 15.19 113.74 15.63Q113.76 16.07 113.80 16.45Q113.85 16.82 113.90 17.09L113.90 17.09L111.78 17.09L111.78 11.59L110.41 11.59ZM121.18 11.59L119.10 11.59L119.10 13.93Q119.10 14.51 119.14 14.86Q119.19 15.20 119.30 15.39Q119.40 15.57 119.57 15.63Q119.73 15.68 119.96 15.68L119.96 15.68Q120.22 15.68 120.55 15.55Q120.87 15.42 121.28 15.17L121.28 15.17L121.28 16.70Q120.79 17.01 120.34 17.13Q119.90 17.26 119.53 17.26L119.53 17.26Q119.04 17.26 118.61 17.17Q118.19 17.08 117.87 16.84Q117.55 16.61 117.37 16.23Q117.18 15.84 117.18 15.24L117.18 15.24L117.18 11.59L115.88 11.59L115.88 10.22L117.18 10.22L117.18 8.07L119.10 8.07L119.10 10.22L121.18 10.22L121.18 11.59ZM122.72 7.62L122.72 7.62Q122.72 7.36 122.81 7.14Q122.90 6.92 123.06 6.76Q123.22 6.60 123.44 6.51Q123.66 6.43 123.92 6.43L123.92 6.43Q124.17 6.43 124.39 6.51Q124.61 6.60 124.77 6.76Q124.93 6.92 125.02 7.14Q125.11 7.36 125.11 7.62L125.11 7.62Q125.11 7.89 125.02 8.11Q124.93 8.33 124.77 8.49Q124.61 8.65 124.39 8.73Q124.17 8.82 123.92 8.82L123.92 8.82Q123.66 8.82 123.44 8.73Q123.22 8.65 123.06 8.49Q122.90 8.33 122.81 8.11Q122.72 7.89 122.72 7.62ZM122.86 10.12L124.87 10.12L124.87 13.84Q124.87 14.17 124.88 14.62Q124.89 15.07 124.91 15.52Q124.93 15.98 124.95 16.40Q124.97 16.82 125.01 17.09L125.01 17.09L122.96 17.09L122.96 13.47Q122.96 12.97 122.95 12.48Q122.95 12.00 122.94 11.56Q122.93 11.13 122.91 10.76Q122.89 10.38 122.86 10.12L122.86 10.12ZM133.76 17.09L131.84 17.09L131.84 13.33Q131.84 12.86 131.78 12.54Q131.72 12.22 131.59 12.02Q131.46 11.83 131.26 11.74Q131.06 11.66 130.79 11.66L130.79 11.66Q130.49 11.66 130.21 11.79Q129.93 11.92 129.69 12.13Q129.45 12.34 129.27 12.60Q129.10 12.86 129.01 13.13L129.01 13.13L129.01 17.09L127.09 17.09L127.09 12.89Q127.09 11.87 126.98 11.17Q126.87 10.47 126.75 10.12L126.75 10.12L128.63 10.12Q128.67 10.22 128.71 10.39Q128.75 10.55 128.79 10.74Q128.82 10.92 128.85 11.09L128.85 11.09L128.91 11.38Q129.23 11.01 129.55 10.75Q129.86 10.48 130.18 10.31Q130.50 10.14 130.84 10.06Q131.17 9.98 131.54 9.98L131.54 9.98Q132.06 9.98 132.47 10.16Q132.88 10.34 133.17 10.69Q133.46 11.05 133.61 11.58Q133.76 12.11 133.76 12.82L133.76 12.82L133.76 17.09ZM139.95 14.25L139.95 11.88Q139.71 11.76 139.41 11.68Q139.12 11.61 138.89 11.61L138.89 11.61Q138.43 11.61 138.11 11.80Q137.79 11.98 137.59 12.29Q137.40 12.60 137.30 12.99Q137.21 13.38 137.21 13.77L137.21 13.77Q137.21 14.27 137.30 14.60Q137.38 14.94 137.53 15.13Q137.68 15.33 137.89 15.42Q138.09 15.50 138.34 15.50L138.34 15.50Q138.52 15.50 138.74 15.42Q138.95 15.33 139.17 15.17Q139.38 15.01 139.58 14.78Q139.78 14.55 139.95 14.25L139.95 14.25ZM141.86 10.49L141.86 16.92Q141.86 17.82 141.57 18.46Q141.28 19.11 140.80 19.51Q140.33 19.92 139.73 20.11Q139.13 20.30 138.51 20.30L138.51 20.30Q138.15 20.30 137.78 20.24Q137.40 20.17 137.03 20.06Q136.66 19.94 136.32 19.78Q135.97 19.61 135.67 19.41L135.67 19.41L136.25 17.99Q136.74 18.33 137.23 18.55Q137.72 18.77 138.24 18.77L138.24 18.77Q138.48 18.77 138.78 18.70Q139.08 18.62 139.34 18.44Q139.60 18.25 139.77 17.94Q139.95 17.63 139.95 17.16L139.95 17.16L139.95 15.89Q139.69 16.21 139.40 16.44Q139.11 16.67 138.81 16.83Q138.52 16.98 138.22 17.05Q137.93 17.12 137.66 17.12L137.66 17.12Q137.20 17.12 136.77 16.96Q136.34 16.80 136.01 16.44Q135.69 16.08 135.49 15.50Q135.30 14.93 135.30 14.12L135.30 14.12Q135.30 13.33 135.52 12.58Q135.73 11.84 136.20 11.26Q136.67 10.68 137.40 10.33Q138.12 9.98 139.13 9.98L139.13 9.98Q139.47 9.98 139.82 10.02Q140.18 10.07 140.53 10.14Q140.88 10.22 141.22 10.31Q141.56 10.40 141.86 10.49L141.86 10.49Z"></path></g><!----><!----></svg>